<svg
  version="1.1"
  xmlns="http://www.w3.org/2000/svg"
  style="display: block"
  viewBox="0 0 2048 2048"
  width="512"
  height="512"
>
  <defs>
    <linearGradient
      id="Gradient1"
      gradientUnits="userSpaceOnUse"
      x1="673.959"
      y1="915.419"
      x2="621.807"
      y2="995.942"
    >
      <stop
        class="stop0"
        offset="0"
        stop-opacity="1"
        stop-color="rgb(81,71,69)"
      />
      <stop
        class="stop1"
        offset="1"
        stop-opacity="1"
        stop-color="rgb(111,85,81)"
      />
    </linearGradient>
    <linearGradient
      id="Gradient2"
      gradientUnits="userSpaceOnUse"
      x1="1109.76"
      y1="1055.31"
      x2="889.347"
      y2="940.708"
    >
      <stop
        class="stop0"
        offset="0"
        stop-opacity="1"
        stop-color="rgb(49,70,79)"
      />
      <stop
        class="stop1"
        offset="1"
        stop-opacity="1"
        stop-color="rgb(82,94,93)"
      />
    </linearGradient>
    <linearGradient
      id="Gradient3"
      gradientUnits="userSpaceOnUse"
      x1="935.992"
      y1="1138.29"
      x2="922.546"
      y2="1174.97"
    >
      <stop
        class="stop0"
        offset="0"
        stop-opacity="1"
        stop-color="rgb(80,92,91)"
      />
      <stop
        class="stop1"
        offset="1"
        stop-opacity="1"
        stop-color="rgb(102,121,108)"
      />
    </linearGradient>
    <linearGradient
      id="Gradient4"
      gradientUnits="userSpaceOnUse"
      x1="1078.42"
      y1="1133.25"
      x2="1094.39"
      y2="1164.02"
    >
      <stop
        class="stop0"
        offset="0"
        stop-opacity="1"
        stop-color="rgb(79,91,93)"
      />
      <stop
        class="stop1"
        offset="1"
        stop-opacity="1"
        stop-color="rgb(108,128,114)"
      />
    </linearGradient>
    <linearGradient
      id="Gradient5"
      gradientUnits="userSpaceOnUse"
      x1="381.937"
      y1="493.839"
      x2="353.537"
      y2="455.776"
    >
      <stop
        class="stop0"
        offset="0"
        stop-opacity="1"
        stop-color="rgb(48,79,60)"
      />
      <stop
        class="stop1"
        offset="1"
        stop-opacity="1"
        stop-color="rgb(92,117,85)"
      />
    </linearGradient>
    <linearGradient
      id="Gradient6"
      gradientUnits="userSpaceOnUse"
      x1="397.886"
      y1="400.797"
      x2="491.565"
      y2="559.895"
    >
      <stop
        class="stop0"
        offset="0"
        stop-opacity="1"
        stop-color="rgb(137,174,99)"
      />
      <stop
        class="stop1"
        offset="1"
        stop-opacity="1"
        stop-color="rgb(119,147,107)"
      />
    </linearGradient>
    <linearGradient
      id="Gradient7"
      gradientUnits="userSpaceOnUse"
      x1="915.242"
      y1="844.234"
      x2="671.746"
      y2="275.313"
    >
      <stop
        class="stop0"
        offset="0"
        stop-opacity="1"
        stop-color="rgb(51,77,63)"
      />
      <stop
        class="stop1"
        offset="1"
        stop-opacity="1"
        stop-color="rgb(87,118,84)"
      />
    </linearGradient>
    <linearGradient
      id="Gradient8"
      gradientUnits="userSpaceOnUse"
      x1="1732.66"
      y1="1456.28"
      x2="369.609"
      y2="635.168"
    >
      <stop
        class="stop0"
        offset="0"
        stop-opacity="1"
        stop-color="rgb(10,32,38)"
      />
      <stop
        class="stop1"
        offset="1"
        stop-opacity="1"
        stop-color="rgb(36,52,40)"
      />
    </linearGradient>
  </defs>
  <path
    transform="translate(0,0)"
    fill="rgb(254,254,254)"
    d="M 750.256 124.978 C 749.743 87.521 766.112 51.2753 792.123 24.4188 C 802.398 13.8101 814.219 7.6962 829.203 7.46531 C 848.033 7.17515 863.68 15.0584 876.91 27.9905 C 893.218 43.9319 907.589 66.5757 925.411 79.8785 C 939.679 90.5287 957.556 96.2864 972.533 106.199 C 1012.54 74.6863 1078.45 44.3821 1130.5 50.2823 C 1144.57 51.8781 1156.82 57.0607 1165.97 68.2961 C 1174.28 78.6702 1178.97 91.4767 1179.32 104.763 C 1200.86 103.077 1221.18 103.896 1242.67 106.286 C 1263.95 108.651 1285.16 113.753 1306.08 118.29 C 1323.2 122.001 1341.04 125.149 1357.52 131.115 C 1366.26 134.283 1374.68 138.373 1381.79 144.449 C 1390.08 151.53 1396.8 161.533 1398.83 172.363 L 1400.2 172.883 C 1412.09 177.348 1424.65 179.719 1436.7 183.716 C 1456.42 190.257 1475.69 200.24 1493.32 211.206 C 1509.71 221.395 1525.84 231.101 1537.08 247.17 C 1542.57 255.017 1546.81 263.512 1553.79 270.193 C 1563 279.016 1574.31 286.355 1584.44 294.172 C 1595.82 302.944 1606.78 312.535 1617.41 322.185 C 1671.39 371.18 1726.11 449.568 1756.71 515.549 C 1767.97 539.848 1776.33 562.102 1766.53 588.479 L 1765.99 589.918 C 1773.3 606.174 1782.18 621.795 1789.82 637.95 C 1800.85 661.315 1810.77 685.199 1822.32 708.323 C 1833.77 731.269 1850.15 756.741 1856.98 781.31 C 1860.05 792.333 1860.67 803.031 1856.61 813.934 C 1852.84 824.066 1845.25 833.169 1838.18 841.201 C 1848.14 863.147 1858.24 885.029 1868.48 906.847 C 1889.03 950.142 1949.51 1067.24 1932.06 1113.23 C 1926.39 1128.18 1915.4 1138.91 1900.84 1145.26 C 1895.99 1147.38 1890.98 1149.15 1886 1150.93 C 1892.09 1193.11 1895.24 1331.31 1871.11 1364.43 C 1864.05 1374.13 1852.25 1381.41 1841.67 1386.69 C 1841.52 1386.97 1841.37 1387.25 1841.22 1387.54 C 1834.26 1401.3 1830.51 1418.22 1825.44 1432.88 C 1812.1 1471.51 1781.5 1555.96 1740.63 1569.71 C 1728.72 1573.72 1716.92 1573.02 1705.39 1568.25 C 1699.47 1582.78 1692.68 1596.93 1685.05 1610.64 C 1663.81 1648.25 1600.55 1743.64 1561.85 1759.61 C 1546 1766.14 1527.23 1763.44 1511.83 1757 L 1510.89 1757.75 C 1501.51 1765.4 1493.21 1774.58 1484.46 1782.95 C 1460.22 1806.15 1413.99 1848.89 1384.31 1861.06 C 1375.28 1864.75 1365.85 1866.32 1356.11 1865.38 C 1349.52 1864.74 1343.52 1863 1337.17 1861.29 C 1294.91 1890.01 1228.95 1932.4 1176.3 1922.51 C 1168.21 1920.99 1160.61 1918.34 1153.1 1915.01 C 1129.41 1927.02 1106.38 1939.54 1081.75 1949.63 C 1029.47 1971.03 940.078 1993.7 885.811 1976.13 C 851.895 1965.15 858.718 1948.63 841.044 1936.75 C 827.577 1927.7 810.772 1921.79 796.217 1914.56 C 778.672 1905.83 761.838 1895.74 744.341 1886.98 C 711.992 1898.99 687.114 1895.05 656.082 1880.79 C 606.21 1857.86 562.469 1824.07 523.269 1785.91 C 511.218 1774.17 500.556 1760.15 488.033 1749.13 C 471.827 1754.31 455.993 1754.58 440.477 1746.59 C 395.555 1723.46 325.165 1614.85 305.974 1567.89 C 287.44 1570.81 269.621 1571.96 253.42 1560.44 C 224.112 1539.59 196.097 1475.72 183.604 1442.03 C 176.998 1424.22 172.112 1404.81 164.208 1387.59 C 145.553 1380.04 130.477 1372.8 122.008 1353.03 C 115.54 1337.94 114.495 1320.77 112.817 1304.61 C 107.556 1253.91 106.972 1204.64 115.137 1154.15 C 98.264 1151.21 83.3167 1139.76 73.5127 1125.89 C 62.8428 1110.8 64.5592 1093.16 67.6828 1075.95 C 76.4137 1027.84 97.0829 983.478 117.172 939.308 C 132.314 906.017 147.528 872.899 163.288 839.888 C 150.706 826.923 140.445 813.056 140.64 794.03 C 140.934 765.407 157.702 740.605 168.839 715.295 C 172.244 707.559 175.388 695.902 180.392 689.231 C 188.163 666.208 200.819 641.684 213.611 621.01 C 217.483 612.862 222.916 605.621 227.012 597.602 C 218.48 585.226 215.734 569.333 218.403 554.637 C 228.723 497.806 306.162 388.987 348.09 349.57 C 363.11 335.45 379.485 322.029 395.873 309.533 C 405.644 302.082 416.465 295.419 425.502 287.098 C 424.652 267.393 424.827 257.47 438.898 242.341 C 461.657 217.871 497.357 202.767 527.356 189.175 C 536.806 184.893 547.12 181.011 555.963 175.643 C 574.248 164.542 575.54 149.821 600.775 140.566 C 624.885 131.723 689.349 123.057 715.894 122.311 C 727.052 121.998 739.327 122.572 750.256 124.978 z"
  />
  <path
    transform="translate(0,0)"
    fill="rgb(2,5,8)"
    d="M 831.239 64.7982 C 832.393 64.7869 833.543 64.7858 834.692 64.9187 C 842.542 65.8268 859.127 93.0744 865.019 99.4922 C 876.667 112.181 890.678 123.214 905.486 131.984 C 930.953 147.066 959.968 157.252 978.585 181.579 C 983.624 174.085 989.372 167.094 995.75 160.702 C 1022.97 133.379 1077.22 105.322 1116.36 105.946 C 1119.94 106.004 1123.91 105.76 1126.51 108.394 C 1126.29 112.711 1121.5 117.446 1118.65 120.619 C 1103.16 137.867 1092.07 153.727 1079.79 173.355 C 1133.81 153.525 1207.93 157.378 1263.99 166.769 C 1277.82 169.086 1339.58 179.712 1345.31 189.161 C 1346.14 190.524 1345.63 191.23 1345.34 192.679 C 1337.19 202.489 1321.34 209.414 1310.39 215.861 C 1350.08 215.762 1393.75 226.536 1430.1 242.257 C 1446.17 249.207 1491.42 269.772 1496.49 285.436 C 1496.98 286.959 1496.32 287.408 1495.65 288.724 C 1489.27 292.145 1475.24 287.064 1467.83 286.136 C 1564.4 338.221 1621.35 396.245 1678.61 489.844 C 1690.41 509.127 1709.74 541.984 1715.98 562.762 C 1717.38 567.402 1718.03 571.346 1715.64 575.74 C 1714.22 576.914 1713.42 577.388 1711.55 577.711 C 1702.94 579.2 1692.03 570.557 1685.4 566.15 C 1708.17 597.42 1727.24 634.833 1743.01 670.118 C 1751.48 689.062 1759.05 708.298 1768.25 726.934 C 1779.28 749.295 1798.28 774.357 1803.46 798.467 C 1802.68 800.771 1802.76 800.785 1800.67 802.001 C 1786.17 802.203 1758.78 784.762 1745.54 777.083 C 1769.6 822.467 1789.13 869.096 1810.45 915.725 C 1828.21 954.569 1847.57 992.433 1863.14 1032.26 C 1867.53 1043.51 1884.77 1085.29 1880.4 1095.27 C 1878.59 1096.74 1877.18 1097.6 1874.8 1097.88 C 1859.12 1099.72 1825.24 1073.07 1813 1063.37 C 1816.61 1086.89 1823.2 1110.15 1827.22 1133.67 C 1834.21 1174.67 1835.09 1215.59 1833.97 1257.08 C 1833.65 1269.18 1830.61 1330.11 1824.15 1336.24 L 1821.84 1335.55 C 1812.54 1326.74 1807.94 1312.01 1803.52 1300.23 C 1796.37 1356.75 1768.61 1435.18 1743.03 1486.36 C 1737.71 1497 1731.27 1511.95 1721.23 1518.85 C 1719.12 1520.3 1717.93 1520.16 1715.53 1519.7 C 1709.48 1509.04 1706.04 1480.28 1702.77 1466.6 C 1699.6 1453.35 1695.79 1440.28 1691.97 1427.2 C 1689.52 1444.09 1684.7 1459.98 1679.76 1476.25 C 1665.17 1524.29 1646.49 1569.32 1619.31 1611.73 C 1608.33 1628.87 1554.58 1708.58 1536.54 1710.81 C 1533.86 1711.14 1532.65 1710.51 1530.51 1709.01 C 1527.87 1700.28 1535.27 1651.61 1536.66 1638.97 C 1506.02 1688.69 1434.07 1757.44 1387.77 1794.03 C 1380.52 1799.76 1369.6 1810.07 1360.61 1812.02 C 1358.15 1812.56 1356.9 1812.45 1354.78 1811.17 C 1352.51 1804.08 1376.76 1763.28 1381.09 1753.92 C 1369.64 1762.71 1359.37 1773.52 1348.29 1782.85 C 1311.1 1814.18 1268.23 1845.91 1222.15 1862.51 C 1207.6 1867.75 1192.05 1869.86 1177.23 1874.37 C 1183.05 1864.64 1191.05 1856.02 1197.34 1846.52 C 1207.02 1831.91 1214.12 1815.85 1221.21 1799.88 C 1210.8 1808.24 1201.23 1817.13 1190.32 1824.9 L 1169.04 1839.38 C 1104.41 1882.93 1023.73 1922.71 944.701 1927.29 C 931.415 1928.06 917.855 1928.44 904.745 1925.8 C 901.314 1925.11 897.684 1924.66 895.677 1921.64 C 899.307 1914.17 918.629 1904.28 926.039 1899.17 C 878.455 1906.83 775.602 1840.92 735.961 1813.9 C 722.123 1804.46 709.076 1794.09 695.45 1784.39 C 701.734 1795.73 724.524 1827.96 724.634 1838.95 L 723.106 1840.23 C 715.778 1841.32 709.219 1840.85 702.062 1839.07 C 674.291 1832.19 647.005 1815.51 623.997 1798.86 C 561.527 1753.34 509.132 1695.41 470.097 1628.7 C 473.449 1647.46 474.787 1667.07 476.257 1686.08 C 476.63 1690.9 477.599 1696.17 474.301 1700.04 C 471.808 1700.94 470.538 1700.94 468.022 1699.99 C 458.141 1696.22 444.416 1678.47 437.317 1670.35 C 392.952 1619.61 360.162 1560.63 337.183 1497.42 C 330.039 1477.77 325.099 1457.34 317.55 1437.85 C 313.264 1451.33 308.975 1464.88 305.392 1478.58 C 302.436 1489.88 300.866 1504.49 295.563 1514.84 C 294.739 1516.45 294.62 1516.95 292.773 1517.46 C 289.958 1518.24 287.908 1517.71 285.482 1516.2 C 276.601 1510.69 270.333 1496.58 265.472 1487.48 C 233.855 1428.24 211.545 1361.72 197.954 1296.06 C 193.963 1307.28 188.114 1323.32 180.033 1332.22 C 178.308 1334.12 177.246 1334.85 174.716 1335.03 L 173.538 1333.68 C 157.077 1258.5 168.505 1132.61 187.276 1058.07 C 173.969 1071.64 152.877 1095.21 135.505 1101.89 C 132.294 1103.12 129.129 1103.75 125.925 1102.12 C 124.14 1101.22 123.045 1099.53 122.559 1097.6 C 116.061 1071.75 180.568 942.29 194.212 910.723 C 215.56 861.332 232.815 812.111 258.786 764.606 C 244.891 774.212 215.1 798.36 199.386 798.823 C 196.985 797.552 196.881 797.434 195.686 794.992 C 197.295 782.415 212.452 758.431 218.539 745.931 C 239.689 702.496 258.966 658.333 281.456 615.541 C 292.298 594.913 305.595 575.772 316.637 555.364 C 308.737 560.68 302.257 568.052 294.299 573.406 C 290.312 576.089 284.772 579.009 279.819 577.452 C 277.241 576.642 275.527 575.019 274.478 572.565 C 270.383 562.982 288.756 528.825 294.189 518.738 C 350.871 413.51 439.96 324.856 556.72 290.204 C 549.704 289.075 542.76 288.249 535.653 288.02 C 525.239 287.686 485.491 290.35 479.672 284.656 C 479.69 282.807 479.454 282.807 480.635 281.132 C 484.748 275.3 493.254 270.659 499.2 266.723 C 541.039 239.029 588.467 223.841 637.456 214.864 C 630.825 212.99 622.782 210.888 617.131 206.853 C 614.524 204.991 613.045 203.342 612.437 200.09 C 613.533 196.868 614.758 195.236 617.784 193.553 C 640.247 181.059 728.891 177.663 757.436 178.627 C 779.933 179.387 803.655 181.114 825.431 186.884 C 811.195 168.79 804.391 145.95 806.407 123.015 C 808.184 104.235 816.262 77.3114 831.239 64.7982 z"
  />
  <path
    transform="translate(0,0)"
    fill="url(#Gradient8)"
    d="M 834.117 92.8272 C 850.962 118.106 873.033 138.776 899.984 152.949 C 913.067 159.829 926.776 165.898 939.067 174.152 C 954.652 184.618 968.039 198.404 981.067 211.833 C 1006.13 178.755 1025.14 158.098 1063.19 139.248 C 1069.19 136.174 1075.65 134.212 1082.02 132.068 C 1081.85 132.385 1081.68 132.705 1081.51 133.021 C 1073.21 147.982 1047.3 180.659 1051.92 198.606 C 1052.47 200.741 1052.75 200.734 1054.18 202.187 L 1055.94 202.685 C 1068.64 198.638 1081.19 193.994 1094.07 190.543 C 1126.19 181.935 1156.81 180.839 1189.82 180.924 C 1222.63 181.192 1276.95 188.214 1307.76 197.77 C 1297.99 202.976 1250.64 225.363 1247.55 233.625 C 1249.89 235.955 1253.16 235.753 1256.37 235.89 C 1275.45 235.685 1294.53 236.372 1313.55 237.947 C 1344.12 238.195 1374.2 244.728 1403 254.883 C 1413.93 258.736 1424.55 263.707 1435.61 267.114 C 1413.97 270.051 1389.7 274.257 1370.81 285.732 C 1385.69 290.046 1401.13 293.484 1416.38 296.212 C 1424.01 296.341 1432.63 299.001 1439.98 301.114 C 1474.62 311.068 1494.81 326.724 1523.5 346.861 C 1544.6 361.674 1565.17 376.248 1583.11 394.988 C 1602.54 415.271 1618.83 439.059 1634.98 461.955 C 1643.68 474.285 1652.97 486.553 1660.46 499.647 C 1667.75 512.374 1673.53 525.888 1679.44 539.285 C 1669.67 528.944 1640.54 506.644 1625.63 507.272 C 1624.35 507.326 1624.18 507.451 1623.13 507.816 C 1624.35 513.538 1631.8 520.265 1635.1 525.512 C 1641.19 535.189 1646.04 545.632 1652.13 555.306 C 1668.88 581.887 1686.81 607.613 1702.92 634.638 C 1718.37 660.548 1727.63 689.522 1741.02 716.423 C 1744.52 723.456 1760.78 751.526 1759.06 758.238 C 1755.96 759.135 1753.34 757.605 1750.69 756.143 C 1741.13 750.883 1704.92 723.18 1698.12 722.304 C 1697.39 722.21 1696.7 722.674 1695.99 722.859 C 1697.39 729.937 1709.76 744.957 1713.65 753.857 C 1725.09 780.035 1738.81 804.887 1750.67 830.806 C 1767.13 866.792 1781.86 903.657 1798.59 939.514 C 1812.04 968.352 1825.92 996.457 1837.94 1025.98 C 1842.89 1038.14 1848.14 1050.18 1851.2 1063 C 1832.01 1053.9 1816.15 1037.99 1801.27 1023.11 C 1796.22 1018.06 1790.97 1011.7 1785.08 1007.75 C 1783.08 1009.08 1783.14 1009.15 1782.71 1011.4 C 1779.52 1028.12 1796.53 1086.74 1800.49 1105.18 C 1804.27 1122.86 1807.41 1140.68 1809.89 1158.59 C 1814.52 1194.6 1814.56 1231.46 1813 1267.69 C 1805.35 1248.31 1802.12 1236.62 1786.28 1221.98 C 1786.28 1240.56 1787.15 1259.02 1785.14 1277.54 C 1779.19 1332.55 1751.92 1427.64 1724.47 1474.55 C 1722.95 1451.39 1704.71 1396.97 1686.33 1381.8 C 1684.81 1380.54 1684.41 1380.62 1682.59 1380.22 C 1678.58 1384.65 1677.45 1397.8 1676.27 1404.09 C 1671.73 1428.13 1666.06 1451.42 1658.47 1474.71 C 1635.11 1546.35 1605.73 1602.48 1558.06 1660.8 C 1557.69 1645.75 1561.17 1608.55 1558.39 1597.51 C 1557.41 1593.62 1554.77 1590.08 1552.45 1586.87 C 1527.48 1618.44 1504.51 1652.28 1476.87 1681.64 C 1463.76 1695.57 1450.08 1709.47 1436.03 1722.45 C 1423.72 1733.8 1410.59 1744.3 1399.6 1756.98 C 1405.05 1743.42 1431.33 1686.15 1426.66 1675.65 C 1426.52 1675.35 1426.3 1675.08 1426.12 1674.8 C 1424.27 1675.03 1423.77 1676.35 1422.65 1677.81 C 1387.69 1723.42 1325.85 1779.48 1277.42 1810.22 C 1260.92 1820.69 1243.16 1829.05 1225.79 1837.96 C 1230.55 1829.34 1235.24 1820.73 1239.19 1811.7 C 1243.61 1801.58 1262.37 1751.81 1259.05 1742.55 C 1258.94 1742.24 1258.75 1741.97 1258.6 1741.68 C 1256.21 1741.85 1254.28 1744.07 1252.46 1745.63 C 1244.49 1752.51 1237.21 1760.26 1229.41 1767.35 C 1218.87 1776.92 1207.64 1785.83 1196.53 1794.75 C 1145.94 1835.34 1069.62 1878.79 1006.64 1896.3 C 987.669 1901.57 968.495 1904.01 949.047 1906.67 C 965.111 1889.6 996.962 1849.18 1005.93 1828.25 C 988.426 1831.79 971.043 1840.75 954.174 1846.75 C 932.518 1833.66 906.626 1813.6 892.102 1792.87 C 886.799 1785.3 883.47 1776.61 878.244 1769.17 C 881.6 1804.72 892.636 1815.24 910.66 1843.62 C 906.531 1841.54 902.842 1838.87 898.793 1836.69 C 886.312 1829.95 873.917 1824.45 862.089 1816.45 C 849.247 1807.76 837.118 1796.83 823.439 1789.63 C 833.941 1808.45 843.877 1828.53 858.776 1844.32 C 868.683 1854.82 881.252 1862.48 889.647 1874.4 C 815.208 1844.01 746.271 1801.59 685.596 1748.83 C 674.52 1739.34 663.68 1729.59 653.087 1719.56 C 646.202 1712.94 639.629 1705.39 632.204 1699.42 C 637.877 1719.82 645.698 1740.08 656.202 1758.47 C 666.065 1775.73 677.946 1791.8 684.889 1810.55 C 607.578 1771.49 552.807 1712.84 503.115 1643.16 C 498.406 1636.56 473.233 1593.86 470.792 1592.45 C 467.34 1590.44 458.488 1591.88 454.378 1591.83 C 450.832 1612.6 449.81 1636.05 453.33 1656.81 C 438.744 1637.8 423.468 1619.38 410.182 1599.38 C 380.122 1554.13 358.68 1500.69 343.586 1448.7 C 340.73 1438.87 330.897 1391.63 323.975 1387.8 C 319.378 1389.05 316.915 1393.03 314.603 1397.01 C 309.066 1406.53 305.031 1417.21 300.73 1427.35 C 295.281 1443.37 288.292 1458.57 284.556 1475.16 C 261.909 1440.5 232.03 1357.96 224.172 1316.58 C 222.671 1308.68 222.336 1300.68 221.953 1292.66 C 216.585 1279.28 214.078 1262.45 212.517 1248.26 C 212.025 1243.79 212.321 1239.38 211.725 1234.9 L 210.029 1233.93 C 206.825 1234.51 204.582 1236.76 202.106 1238.73 C 195.809 1246.57 191.648 1256.04 187.249 1265.02 C 186.456 1200.25 187.854 1133.41 209.058 1071.42 C 212.684 1050.04 217.26 1028.85 222.773 1007.88 C 207.305 1008.9 165.56 1048.91 153.61 1061.24 C 156.634 1051.13 159.069 1039.12 164.298 1029.95 C 166.043 1018.88 184.885 981.363 191.237 970.835 C 200.225 951.026 209.733 931.282 217.889 911.12 C 228.068 885.957 236.958 860.241 247.515 835.235 C 261.036 803.207 276.626 770.89 292.595 739.978 C 300.176 720.773 306.165 701.424 318.339 684.537 C 292.923 708.098 265.648 728.877 239.263 751.277 C 247.676 729.745 258.874 708.151 269.487 687.593 C 286.644 652.582 303.649 618.081 323.752 584.631 C 339.637 558.201 358.394 533.735 371.817 505.868 C 370.101 504.37 368.848 503.421 366.525 503.109 C 352.925 501.285 321.481 527.052 311.677 535.285 C 324.501 511.883 355.929 453.691 375.13 436.861 C 394.626 411.995 417.213 389.524 443.672 372.105 C 465.008 354.526 514.17 324.131 540.194 318.254 C 569.67 306.292 600.467 301.12 630.892 292.496 C 633.509 291.946 636.107 291.085 638.683 290.357 L 649.038 287.217 C 614.643 274.637 579.18 271.65 543.066 267.747 C 547.61 263.882 552.223 260.628 557.802 258.44 C 567.058 254.428 576.545 250.74 586.371 248.38 C 614.69 237.883 649.966 233.661 679.924 232.872 C 687.013 231.329 695.095 232.091 702.409 231.505 L 703.313 230.397 C 703.198 230.06 703.112 229.712 702.968 229.386 C 698.581 219.446 662.167 206.78 650.927 202.631 C 664.401 201.294 677.91 200.469 691.454 201.014 C 739.529 198.027 809.217 195.964 853.452 215.538 C 859.143 214.839 861.67 213.947 865.367 209.489 C 855.744 199.448 848.412 187.337 841.43 175.364 C 822.889 143.571 824.985 127.505 834.117 92.8272 z"
  />
  <path
    transform="translate(0,0)"
    fill="url(#Gradient7)"
    d="M 834.117 92.8272 C 850.962 118.106 873.033 138.776 899.984 152.949 C 913.067 159.829 926.776 165.898 939.067 174.152 C 954.652 184.618 968.039 198.404 981.067 211.833 C 1006.13 178.755 1025.14 158.098 1063.19 139.248 C 1069.19 136.174 1075.65 134.212 1082.02 132.068 C 1081.85 132.385 1081.68 132.705 1081.51 133.021 C 1073.21 147.982 1047.3 180.659 1051.92 198.606 C 1052.47 200.741 1052.75 200.734 1054.18 202.187 L 1055.94 202.685 C 1068.64 198.638 1081.19 193.994 1094.07 190.543 C 1126.19 181.935 1156.81 180.839 1189.82 180.924 C 1222.63 181.192 1276.95 188.214 1307.76 197.77 C 1297.99 202.976 1250.64 225.363 1247.55 233.625 C 1249.89 235.955 1253.16 235.753 1256.37 235.89 C 1275.45 235.685 1294.53 236.372 1313.55 237.947 C 1344.12 238.195 1374.2 244.728 1403 254.883 C 1413.93 258.736 1424.55 263.707 1435.61 267.114 C 1413.97 270.051 1389.7 274.257 1370.81 285.732 C 1385.69 290.046 1401.13 293.484 1416.38 296.212 L 1412.81 296.922 C 1412.58 297.459 1412.4 298.016 1412.14 298.533 C 1411.96 298.88 1411.7 299.178 1411.49 299.5 C 1397.88 300.388 1384.03 299.419 1370.52 300.825 C 1387.83 306.523 1405.75 310.299 1423.23 315.468 C 1448.36 322.904 1471.27 332.156 1495.04 343.127 C 1505.14 347.788 1516.85 352.097 1525.74 358.852 L 1526.36 360.388 C 1517.81 361.588 1501.93 354.295 1492.79 352.372 C 1473.57 348.33 1454.11 347.198 1435.12 341.797 C 1446.59 350.029 1460.97 353.851 1473.64 359.95 C 1487.31 366.527 1500.49 374.449 1513.68 381.933 C 1530.48 391.462 1547.51 400.548 1562.88 412.324 C 1546.7 408.98 1532.55 398.704 1516.92 393.394 C 1490.08 384.274 1462.22 380.088 1434.38 375.445 C 1423.01 373.549 1411.7 370.654 1400.22 369.532 C 1438.03 386.363 1476.72 405.017 1510.45 429.179 C 1524.09 438.947 1536.59 450.23 1549.76 460.601 C 1560.11 468.745 1571.71 474.739 1580.62 484.631 C 1570.56 479.138 1560.89 473.005 1550.37 468.396 C 1530.04 459.484 1508.29 454.271 1487.38 446.942 C 1498.3 465.446 1516.28 479.127 1528.8 496.896 L 1525.76 498.974 C 1515.63 494.209 1506.65 491.755 1495.61 490.005 C 1516.97 503.176 1532.75 524.59 1549.95 542.487 C 1557.61 550.462 1565.97 557.534 1574.53 564.514 C 1572.76 565.241 1571.35 565.564 1570.04 566.965 C 1511.14 528.422 1459.54 517.034 1390.6 515.774 C 1373.8 515.467 1356.72 517.158 1340.01 516.015 C 1354.89 512.486 1368.96 506.414 1383.58 501.993 C 1399.07 497.309 1430.7 491.704 1443.14 484.302 C 1438.9 477.644 1409.38 472.152 1400.72 470.239 C 1332.11 455.079 1259.09 458.635 1194.05 486.405 C 1168.36 497.376 1144.53 511.916 1119.29 523.65 C 1124.55 513.541 1134.31 498.959 1134.3 487.61 L 1133.12 485.518 C 1127.46 485.013 1122.77 489.019 1118.6 492.511 C 1098.69 509.19 1081.27 529.26 1063.06 547.703 C 1065.17 535.89 1070.36 519.872 1069.96 508.331 L 1068.66 506.548 C 1064.92 506.143 1062.44 506.817 1059.6 509.228 C 1046.74 520.16 1040.6 545.615 1037.04 561.333 C 1033.52 553.003 1023.07 527.577 1014.82 523.776 C 1013.34 523.092 1012.64 523.94 1011.29 524.57 C 1000.11 538.785 993.36 587.768 992.324 605.485 C 975.124 574.814 952.357 542.275 924.663 520.374 C 926.925 531.697 929.297 542.957 930.557 554.446 C 926.353 548.194 922.088 542.708 916.658 537.472 C 901.838 523.182 866.524 497.798 847.518 490.719 C 854.505 506.75 863.737 521.443 872.433 536.562 C 852.458 527.699 834.671 514.676 814.716 505.757 C 730.087 467.933 653.644 450.362 561.17 468.543 C 543.041 472.107 523.754 476.114 506.481 482.705 L 504.75 483.383 C 522.983 491.344 541.83 495.544 560.841 501.09 C 576.574 505.68 592.761 511.465 607.829 517.893 C 543.011 518.521 478.819 535.447 424.46 571.458 C 412.111 579.638 399.854 588.54 389.446 599.116 C 388.623 599.95 387.81 600.795 387.008 601.65 C 415.301 600.386 443.31 598.97 471.644 598.988 C 417.848 627.358 352.218 676.311 329.026 734.412 C 346.735 727.35 368.781 718.43 386.924 713.441 C 367.85 732.347 330.575 776.168 329.945 803.075 C 329.907 804.703 329.9 804.181 331.149 805.466 C 334.168 804.54 359.522 781.61 363.24 777.977 C 354.091 803.114 341.012 826.922 330.515 851.541 C 319.958 876.299 311.843 902.073 300.364 926.465 C 286.648 955.612 268.727 984.572 259.311 1015.35 C 273.948 1008.28 291.283 1001.67 304.454 992.31 C 298.062 1014.08 263.161 1083.31 263.562 1096.84 L 264.591 1098.27 C 271.097 1096.42 278.128 1090.1 283.88 1086.31 C 282.803 1087.37 281.82 1088.19 280.593 1089.06 C 275.672 1092.56 272.366 1098.49 265.83 1099.01 L 263.279 1098 C 260.931 1091.99 264.97 1084.73 267.439 1079.1 C 270.208 1072.79 276.319 1062.8 274.936 1055.96 L 273.099 1054.64 C 271.585 1055.21 272.168 1054.73 271.369 1055.89 C 268.97 1059.4 265.894 1061.58 263.685 1065.25 L 261.805 1065.81 L 258.616 1062.32 C 255.949 1062.22 254.639 1062.83 252.555 1064.56 C 252.163 1064.89 251.193 1065.93 250.834 1066.28 C 245.005 1071.96 227.219 1072.08 219.306 1072.61 C 217.073 1070.53 212.835 1067.55 212.322 1064.46 C 209.483 1071.32 211.288 1087.19 210.866 1095.48 C 210.01 1112.31 207.941 1129.09 206.397 1145.87 C 205.589 1154.64 205.703 1164.75 203.563 1173.25 L 202.687 1172.87 C 197.789 1185.57 202.047 1220.74 200.748 1236.01 L 202.106 1238.73 C 195.809 1246.57 191.648 1256.04 187.249 1265.02 C 186.456 1200.25 187.854 1133.41 209.058 1071.42 C 212.684 1050.04 217.26 1028.85 222.773 1007.88 C 207.305 1008.9 165.56 1048.91 153.61 1061.24 C 156.634 1051.13 159.069 1039.12 164.298 1029.95 C 166.043 1018.88 184.885 981.363 191.237 970.835 C 200.225 951.026 209.733 931.282 217.889 911.12 C 228.068 885.957 236.958 860.241 247.515 835.235 C 261.036 803.207 276.626 770.89 292.595 739.978 C 300.176 720.773 306.165 701.424 318.339 684.537 C 292.923 708.098 265.648 728.877 239.263 751.277 C 247.676 729.745 258.874 708.151 269.487 687.593 C 286.644 652.582 303.649 618.081 323.752 584.631 C 339.637 558.201 358.394 533.735 371.817 505.868 C 370.101 504.37 368.848 503.421 366.525 503.109 C 352.925 501.285 321.481 527.052 311.677 535.285 C 324.501 511.883 355.929 453.691 375.13 436.861 C 394.626 411.995 417.213 389.524 443.672 372.105 C 465.008 354.526 514.17 324.131 540.194 318.254 C 569.67 306.292 600.467 301.12 630.892 292.496 C 633.509 291.946 636.107 291.085 638.683 290.357 L 649.038 287.217 C 614.643 274.637 579.18 271.65 543.066 267.747 C 547.61 263.882 552.223 260.628 557.802 258.44 C 567.058 254.428 576.545 250.74 586.371 248.38 C 614.69 237.883 649.966 233.661 679.924 232.872 C 687.013 231.329 695.095 232.091 702.409 231.505 L 703.313 230.397 C 703.198 230.06 703.112 229.712 702.968 229.386 C 698.581 219.446 662.167 206.78 650.927 202.631 C 664.401 201.294 677.91 200.469 691.454 201.014 C 739.529 198.027 809.217 195.964 853.452 215.538 C 859.143 214.839 861.67 213.947 865.367 209.489 C 855.744 199.448 848.412 187.337 841.43 175.364 C 822.889 143.571 824.985 127.505 834.117 92.8272 z"
  />
  <path
    transform="translate(0,0)"
    fill="rgb(103,135,92)"
    d="M 834.117 92.8272 C 850.962 118.106 873.033 138.776 899.984 152.949 C 913.067 159.829 926.776 165.898 939.067 174.152 C 954.652 184.618 968.039 198.404 981.067 211.833 C 1006.13 178.755 1025.14 158.098 1063.19 139.248 C 1069.19 136.174 1075.65 134.212 1082.02 132.068 C 1081.85 132.385 1081.68 132.705 1081.51 133.021 C 1073.21 147.982 1047.3 180.659 1051.92 198.606 C 1052.47 200.741 1052.75 200.734 1054.18 202.187 L 1055.94 202.685 C 1068.64 198.638 1081.19 193.994 1094.07 190.543 C 1126.19 181.935 1156.81 180.839 1189.82 180.924 C 1222.63 181.192 1276.95 188.214 1307.76 197.77 C 1297.99 202.976 1250.64 225.363 1247.55 233.625 C 1249.89 235.955 1253.16 235.753 1256.37 235.89 C 1275.45 235.685 1294.53 236.372 1313.55 237.947 C 1313.88 238.074 1314.21 238.208 1314.55 238.327 C 1320.89 240.58 1327.09 239.894 1333.52 241.17 L 1333.84 241.947 C 1316.32 246.759 1298.19 251.286 1280.93 256.807 C 1235.34 271.391 1190.78 293.363 1152.59 322.343 C 1153 322.22 1153.41 322.101 1153.81 321.972 C 1163.74 318.837 1172.95 313.828 1182.59 309.925 C 1204.26 301.275 1227.67 297.911 1250.9 300.112 C 1220.44 309.008 1189.4 317.427 1160.71 331.225 C 1144.8 338.873 1130.38 349.455 1114.22 356.573 C 1114.18 337.202 1117.13 318.058 1129.61 302.314 C 1134.57 296.059 1141.48 289.54 1145.22 282.59 C 1131.89 281.684 1076.44 325.646 1070.64 326.041 C 1065.96 315.347 1080.7 292.167 1075.35 281.901 C 1073.14 281.065 1073.18 281.086 1071.14 282.01 C 1066.33 284.191 1061.7 288.357 1057.56 291.642 C 1038.51 306.749 1028.49 322.161 1016.31 342.89 C 1009.83 322.889 998.662 307.765 988.337 289.817 C 987.938 304.917 987.295 319.583 985.31 334.575 C 974.128 322.477 962.054 310.58 951.72 297.774 C 945.691 320.094 944.111 343.747 936.755 365.675 C 922.902 356.753 911.011 345.358 898.044 335.276 C 886.998 326.688 874.277 319.409 861.655 313.363 C 867.512 325.601 874.355 338.019 881.564 349.505 C 885.289 355.441 889.807 361.036 893.164 367.183 C 894.431 369.503 895.452 371.166 895.031 373.85 C 883.364 374.317 843.889 329.973 828.869 330.97 C 827.542 332.427 827.675 331.713 827.8 333.514 C 828.184 339.064 849.084 381.919 853.216 391.358 C 836.816 381.463 821.23 366.315 808.999 351.592 C 804.457 346.123 800.45 340.136 795.769 334.814 L 793.713 337.153 C 794.149 347.204 798.136 351.802 804.656 358.9 C 784.227 347.204 758.801 341.576 736.245 334.94 C 740.354 344.552 744.354 354.223 748.971 363.604 C 732.517 358.986 716.245 351.356 700.108 345.538 C 650.627 327.697 598.702 315.119 545.736 321.163 C 542.812 320.708 542.453 320.234 540.194 318.254 C 569.67 306.292 600.467 301.12 630.892 292.496 C 633.509 291.946 636.107 291.085 638.683 290.357 L 649.038 287.217 C 614.643 274.637 579.18 271.65 543.066 267.747 C 547.61 263.882 552.223 260.628 557.802 258.44 C 567.058 254.428 576.545 250.74 586.371 248.38 C 614.69 237.883 649.966 233.661 679.924 232.872 C 687.013 231.329 695.095 232.091 702.409 231.505 L 703.313 230.397 C 703.198 230.06 703.112 229.712 702.968 229.386 C 698.581 219.446 662.167 206.78 650.927 202.631 C 664.401 201.294 677.91 200.469 691.454 201.014 C 739.529 198.027 809.217 195.964 853.452 215.538 C 859.143 214.839 861.67 213.947 865.367 209.489 C 855.744 199.448 848.412 187.337 841.43 175.364 C 822.889 143.571 824.985 127.505 834.117 92.8272 z"
  />
  <path
    transform="translate(0,0)"
    fill="rgb(76,104,75)"
    d="M 1189.82 180.924 C 1222.63 181.192 1276.95 188.214 1307.76 197.77 C 1297.99 202.976 1250.64 225.363 1247.55 233.625 C 1249.89 235.955 1253.16 235.753 1256.37 235.89 C 1240.95 242.699 1221.46 244.161 1204.89 246.811 C 1180.58 250.681 1156.25 254.415 1131.9 258.013 C 1142.51 249.282 1153.23 240.41 1164.67 232.776 C 1182.31 221.01 1201.04 210.864 1218.8 199.248 C 1205.36 200.901 1191.78 201.197 1178.31 202.715 C 1163.54 204.381 1149.06 207.46 1134.52 210.468 L 1133.08 207.906 C 1146.29 201.066 1160.52 195.223 1174.51 190.174 C 1177.84 188.969 1188.89 186.476 1190.84 184.642 C 1191.31 184.206 1191.52 183.56 1191.86 183.019 L 1189.82 180.924 z"
  />
  <path
    transform="translate(0,0)"
    fill="rgb(153,186,119)"
    d="M 650.927 202.631 C 664.401 201.294 677.91 200.469 691.454 201.014 C 692.013 201.19 692.568 201.379 693.131 201.541 C 697.7 202.849 706.477 200.225 709.118 204.388 C 707.308 205.818 705.616 205.42 703.358 205.005 C 702.329 204.816 702.11 204.711 701.242 204.406 C 704.35 206.54 708.264 208.119 712.044 208.487 C 720.494 204.24 760.264 209.112 770.775 212.624 C 777.626 214.912 786.577 217.588 791.087 223.485 L 791.511 226.319 C 789.643 228.202 788.486 228.555 785.795 228.607 C 777.857 228.76 766.176 222.516 759.329 224.398 C 760.085 228.825 769.681 234.288 773.084 237.931 C 779.296 244.582 783.814 252.747 789.883 259.613 C 773.53 254.743 755.646 252.926 738.74 250.799 C 706.945 246.798 675.899 243.637 643.798 244.057 C 634.44 244.179 595.624 251.185 590.969 249.518 C 592.775 249.319 595.734 249.452 597.182 248.427 C 594.029 248.389 591.468 248.573 588.407 249.352 L 586.371 248.38 C 614.69 237.883 649.966 233.661 679.924 232.872 C 687.013 231.329 695.095 232.091 702.409 231.505 L 703.313 230.397 C 703.198 230.06 703.112 229.712 702.968 229.386 C 698.581 219.446 662.167 206.78 650.927 202.631 z"
  />
  <path
    transform="translate(0,0)"
    fill="rgb(76,104,75)"
    d="M 650.927 202.631 C 664.401 201.294 677.91 200.469 691.454 201.014 C 692.013 201.19 692.568 201.379 693.131 201.541 C 697.7 202.849 706.477 200.225 709.118 204.388 C 707.308 205.818 705.616 205.42 703.358 205.005 C 702.329 204.816 702.11 204.711 701.242 204.406 C 704.35 206.54 708.264 208.119 712.044 208.487 C 732.445 216.593 750.761 228.718 767.33 243.004 C 736.638 230.915 711.628 234.422 679.924 232.872 C 687.013 231.329 695.095 232.091 702.409 231.505 L 703.313 230.397 C 703.198 230.06 703.112 229.712 702.968 229.386 C 698.581 219.446 662.167 206.78 650.927 202.631 z"
  />
  <path
    transform="translate(0,0)"
    fill="rgb(76,104,75)"
    d="M 543.066 267.747 C 547.61 263.882 552.223 260.628 557.802 258.44 C 558.612 259.096 559.272 260 560.231 260.407 C 562.467 261.357 571.701 260.284 574.636 260.318 C 598.516 260.589 638.459 261.574 660.707 266.555 C 683.517 271.662 711.634 284.28 729.448 299.268 L 728.06 299.123 C 718.985 298.096 710.356 295.241 701.329 293.991 C 690.278 292.461 652.982 291.066 643.582 295.089 L 638.683 290.357 L 649.038 287.217 C 614.643 274.637 579.18 271.65 543.066 267.747 z"
  />
  <path
    transform="translate(0,0)"
    fill="rgb(76,104,75)"
    d="M 1063.19 139.248 C 1069.19 136.174 1075.65 134.212 1082.02 132.068 C 1081.85 132.385 1081.68 132.705 1081.51 133.021 C 1073.21 147.982 1047.3 180.659 1051.92 198.606 C 1052.47 200.741 1052.75 200.734 1054.18 202.187 L 1055.94 202.685 C 1050.71 203.412 1045.47 205.695 1040.54 207.541 C 1019.93 215.264 1010.35 226.76 996.272 242.733 C 1008.5 214.915 1030.52 187.251 1048.56 162.699 C 1053.12 156.506 1060.97 149.816 1063.93 142.998 C 1064.57 141.53 1063.74 140.646 1063.19 139.248 z"
  />
  <path
    transform="translate(0,0)"
    fill="rgb(76,104,75)"
    d="M 865.367 209.489 C 876.865 215.192 890.266 234.875 894.171 246.989 C 894.853 249.104 895.293 251.28 895.759 253.448 L 896.604 257.392 C 890.625 248.44 884.864 239.414 876.355 232.6 C 869.183 226.857 858.975 222.875 853.452 215.538 C 859.143 214.839 861.67 213.947 865.367 209.489 z"
  />
  <path
    transform="translate(0,0)"
    fill="rgb(76,104,75)"
    d="M 1134.52 210.468 C 1127.15 211.857 1121.26 218.172 1114.65 221.554 L 1113.78 220.148 C 1114.11 218.264 1114 217.627 1115.24 216.073 C 1118.83 211.601 1127.49 208.329 1133.08 207.906 L 1134.52 210.468 z"
  />
  <path
    transform="translate(0,0)"
    fill="rgb(76,104,75)"
    d="M 793.713 337.153 C 791.246 333.754 787.882 326.58 788.313 322.226 C 788.482 320.521 788.859 320.137 790.209 319.163 C 793.019 322.329 793.661 329.657 795.367 333.852 L 795.769 334.814 L 793.713 337.153 z"
  />
  <path
    transform="translate(0,0)"
    fill="rgb(76,104,75)"
    d="M 630.892 292.496 C 633.509 291.946 636.107 291.085 638.683 290.357 L 643.582 295.089 C 642.351 295.547 640.76 296.252 639.419 296.426 C 636.121 296.853 633.394 294.319 630.892 292.496 z"
  />
  <path
    transform="translate(0,0)"
    fill="rgb(153,186,119)"
    d="M 833.707 115.527 C 839.49 119.605 840.475 132.837 844.528 139.11 C 853.249 152.608 872.937 172.501 876.216 187.264 C 866.379 184.944 859.45 177.035 853.531 169.233 C 843.585 156.123 831.349 132.433 833.707 115.527 z"
  />
  <path
    transform="translate(0,0)"
    fill="url(#Gradient6)"
    d="M 443.672 372.105 C 465.008 354.526 514.17 324.131 540.194 318.254 C 542.453 320.234 542.812 320.708 545.736 321.163 C 552.863 325.432 562.994 323.272 571.167 325.962 C 602.574 332.854 632.917 339.836 662.68 352.403 C 639.251 353.332 613.376 349.984 590.53 354.961 C 607.734 360.23 624.078 368.4 640.53 375.593 C 662.13 385.037 683.069 393.002 702.821 406.194 C 702.353 406.124 701.884 406.06 701.417 405.985 C 685.742 403.456 671.97 394.643 656.505 391.205 C 619.885 383.063 559.684 379.404 522.867 385.921 C 500.573 389.866 477.34 398.102 456.177 406.137 C 467.864 405.738 479.283 405.758 490.972 406.105 C 458.485 441.809 426.18 478.087 395.608 515.452 C 387.936 524.828 381.187 534.908 373.601 544.336 C 365.492 554.416 355.256 562.416 347.934 573.209 C 335.609 591.375 324.813 610.759 313.391 629.517 C 306.015 641.631 298.01 653.215 290.399 665.139 C 285.159 673.35 282.502 682.604 274.609 688.903 C 272.456 688.825 271.443 688.402 269.487 687.593 C 286.644 652.582 303.649 618.081 323.752 584.631 C 339.637 558.201 358.394 533.735 371.817 505.868 C 370.101 504.37 368.848 503.421 366.525 503.109 C 352.925 501.285 321.481 527.052 311.677 535.285 C 324.501 511.883 355.929 453.691 375.13 436.861 C 394.626 411.995 417.213 389.524 443.672 372.105 z"
  />
  <path
    transform="translate(0,0)"
    fill="url(#Gradient5)"
    d="M 375.13 436.861 L 377.065 438.274 C 392.756 433.506 408.542 429.052 424.412 424.916 C 409.567 447.862 393.548 469.81 379.481 493.298 C 377.289 496.958 373.171 501.957 371.817 505.868 C 370.101 504.37 368.848 503.421 366.525 503.109 C 352.925 501.285 321.481 527.052 311.677 535.285 C 324.501 511.883 355.929 453.691 375.13 436.861 z"
  />
  <path
    transform="translate(0,0)"
    fill="rgb(76,104,75)"
    d="M 443.672 372.105 C 465.008 354.526 514.17 324.131 540.194 318.254 C 542.453 320.234 542.812 320.708 545.736 321.163 C 552.863 325.432 562.994 323.272 571.167 325.962 C 571.298 328.214 570.823 328.248 569.359 329.951 C 567.843 331.714 566.531 333.077 564.383 334.017 C 550.751 339.984 535.455 343.384 521.373 348.263 C 503.954 354.297 464.989 371.756 448.931 373.07 C 447.115 373.218 445.399 372.563 443.672 372.105 z"
  />
  <path
    transform="translate(0,0)"
    fill="rgb(24,42,42)"
    d="M 187.249 1265.02 C 186.456 1200.25 187.854 1133.41 209.058 1071.42 C 210.5 1105.65 205.449 1138.88 202.687 1172.87 C 197.789 1185.57 202.047 1220.74 200.748 1236.01 L 202.106 1238.73 C 195.809 1246.57 191.648 1256.04 187.249 1265.02 z"
  />
  <path
    transform="translate(0,0)"
    fill="rgb(24,42,42)"
    d="M 164.298 1029.95 L 164.776 1030.97 C 165.539 1030.52 166.294 1030.05 167.07 1029.62 C 171.247 1027.32 175.765 1019.5 178.984 1015.7 C 190.467 1002.14 208.693 993.895 226.102 992.509 C 225.305 997.81 224.337 1002.74 222.773 1007.88 C 207.305 1008.9 165.56 1048.91 153.61 1061.24 C 156.634 1051.13 159.069 1039.12 164.298 1029.95 z"
  />
  <path
    transform="translate(0,0)"
    fill="rgb(76,104,75)"
    d="M 292.595 739.978 C 293.469 742.153 292.859 743.186 291.988 745.258 C 284.262 763.63 274.118 781.376 265.566 799.402 C 252.938 826.017 242.207 852.994 231.585 880.445 C 229.932 884.716 223.19 898.603 224.506 902.317 C 238.911 889.701 278.051 791.358 286.024 787.31 C 284.852 793.659 275.034 808.371 271.784 814.814 C 262.38 833.453 253.895 852.554 244.447 871.16 C 235.146 889.477 224.887 907.104 216.965 926.1 C 212.936 935.762 202.032 968.182 194.239 973.564 L 192.456 973.354 L 191.237 970.835 C 200.225 951.026 209.733 931.282 217.889 911.12 C 228.068 885.957 236.958 860.241 247.515 835.235 C 261.036 803.207 276.626 770.89 292.595 739.978 z"
  />
  <path
    transform="translate(0,0)"
    fill="rgb(24,42,42)"
    d="M 221.953 1292.66 C 229.805 1315.74 282.492 1412.76 300.73 1427.35 C 295.281 1443.37 288.292 1458.57 284.556 1475.16 C 261.909 1440.5 232.03 1357.96 224.172 1316.58 C 222.671 1308.68 222.336 1300.68 221.953 1292.66 z"
  />
  <path
    transform="translate(0,0)"
    fill="rgb(24,42,42)"
    d="M 1528.8 496.896 C 1533.46 497.672 1539.92 502.694 1542.59 506.591 C 1544.15 508.87 1545.15 510.864 1544.83 513.684 C 1542.57 514.378 1542.49 514.171 1540.5 513.067 C 1535.13 510.098 1529.65 503.693 1525.76 498.974 L 1528.8 496.896 z"
  />
  <path
    transform="translate(0,0)"
    fill="rgb(24,42,42)"
    d="M 1574.53 564.514 C 1582.44 567.718 1590.88 576.806 1595.77 583.668 C 1586.42 579.111 1578.22 573.346 1570.04 566.965 C 1571.35 565.564 1572.76 565.241 1574.53 564.514 z"
  />
  <path
    transform="translate(0,0)"
    fill="rgb(245,250,213)"
    d="M 1231.27 494.324 C 1275.56 479.206 1320.94 480.147 1366.93 483.569 C 1352.11 487.75 1337.47 492.084 1323.05 497.541 C 1311.85 502.407 1273.52 520.959 1270.11 533.14 C 1269.38 535.764 1269.82 536.284 1271.07 538.499 C 1273.14 539.697 1274.86 540.622 1277.17 541.307 C 1285.98 536.774 1307.23 537.663 1317.69 537.162 C 1377.93 534.277 1435.78 532.713 1493.94 551.246 C 1512.56 557.179 1532.55 564.929 1549.5 574.834 C 1530.51 574.72 1462.31 573.826 1447.99 585.484 L 1447.59 587.566 C 1451.17 592.265 1506.48 612.701 1516.2 617.46 C 1513.62 620.489 1512.1 620.723 1508.06 620.992 C 1501.99 621.397 1495.49 619.806 1489.38 619.503 C 1494.54 628.12 1501.46 635.878 1506.24 644.554 C 1511.52 654.131 1515.29 665.324 1519.02 675.586 C 1533.78 716.126 1538.38 747.487 1527.53 790.137 C 1525.48 798.197 1512.2 841.891 1505.81 846.111 C 1476.74 803.565 1440.29 758.033 1392.51 736.061 C 1352.37 717.602 1307.16 712.903 1265.27 728.476 C 1227.76 742.425 1204.76 771.205 1188.52 806.7 C 1180.15 835.102 1178.81 863.569 1183.92 892.769 C 1201.31 950.694 1231.65 1000.45 1286.24 1029.88 C 1287.24 1030.42 1288.26 1030.9 1289.28 1031.4 C 1325.64 1046.27 1363.05 1051.66 1400.79 1061.48 C 1463.41 1077.77 1527.33 1116.4 1566.13 1168.64 C 1557.15 1163.7 1538.01 1151.41 1527.85 1154.66 C 1526.4 1155.12 1526.24 1155.84 1525.42 1157 C 1530.91 1169.29 1538.59 1180.48 1544.23 1192.73 C 1553.83 1213.6 1559.82 1237.79 1562.03 1260.56 C 1563.11 1271.77 1563.14 1283.05 1564.31 1294.24 C 1558.94 1284.4 1552.87 1271.86 1542.59 1266.27 L 1540.3 1266.37 C 1537.91 1270.25 1538.64 1274.18 1539.62 1278.51 C 1540.48 1282.28 1541.56 1286 1542.61 1289.71 C 1528.82 1315.1 1514.73 1339.29 1494.15 1360 C 1446.77 1407.68 1345.45 1445.09 1280.84 1464.21 C 1079.46 1523.83 792.493 1523.8 604.894 1421.5 C 561.762 1397.98 491.035 1348.41 476.973 1300.39 C 475.001 1293.65 473.581 1286.52 470.858 1280.04 C 455.358 1288.34 444.777 1323.61 438.738 1339.47 C 433.591 1294.35 435.959 1238.34 453.595 1196.54 C 458.7 1184.44 470.174 1174.74 474.001 1162.54 C 473.021 1160.62 472.516 1159.71 470.245 1159.01 C 461.729 1156.41 446.916 1165.46 439.837 1169.41 C 485.005 1115.47 548.898 1079.56 616.382 1062.23 C 646.991 1054.38 680.031 1048.16 708.383 1033.86 C 763.204 1006.21 795.084 957.146 813.99 900.322 C 824.1 861.141 820.276 812.713 799.687 777.505 C 782.939 748.865 755.875 729.872 723.92 721.675 C 681.442 710.779 633.089 719.778 595.818 742.313 C 521.483 787.261 478.13 877.469 422.588 942.547 C 418.111 950.108 411.534 957.486 405.884 964.242 C 377.678 998.497 343.347 1027.21 304.642 1048.9 C 314.103 1032.47 321.204 1014.52 329.009 997.247 C 337.146 979.513 345.654 961.952 354.526 944.575 C 337.131 951.894 320.639 961.926 303.623 970.201 C 322.174 936.321 335.88 892.864 349.94 856.394 C 357.848 835.885 366.793 812.951 379.178 794.723 C 388.067 777.678 400.011 762.551 407.717 744.835 C 407.399 744.519 407.129 744.147 406.763 743.888 C 403.005 741.235 387.402 747.724 382.572 749.1 C 398.166 728.912 415.456 710.244 432.438 691.243 C 434.621 688.8 437.354 686.412 437.164 683.018 C 429.303 680.887 394.091 689.639 383.844 691.905 C 413.156 654.83 463.297 622.937 507.039 606.428 C 520.643 601.293 539.058 598.837 550.917 590.515 C 543.383 583.161 533.933 581.645 524.017 579.652 C 499.28 577.951 475.414 577.125 450.622 578.439 C 519.789 536.752 597.479 536.734 675.317 537.524 C 676.485 537.388 677.087 537.341 678.305 537.078 C 680.888 536.518 682.009 536.103 683.494 533.926 C 683.04 530.304 680.23 527.607 677.985 524.875 C 649.174 506.398 618.874 493.425 585.418 485.884 C 591.77 484.363 598.552 483.069 605.089 483.057 C 629.928 479.684 657.219 481.842 681.819 485.75 C 760.243 498.583 834.263 530.654 897.26 579.093 C 902.341 582.964 907.311 586.981 912.444 590.782 C 914.171 585.696 914.962 580.568 915.634 575.272 C 912.734 567.018 909.317 559.384 905.506 551.519 C 921.725 565.727 931.272 585.137 946.981 599.579 C 950.168 590.287 950.963 581.897 950.926 572.115 C 959.63 585.099 991.49 639.989 999.63 646.551 C 1001.27 647.871 1001.44 647.433 1003.39 647.266 C 1010.35 640.691 1014.82 580.482 1016.39 567.537 C 1025.73 582.415 1036.51 594.602 1049.45 606.484 C 1055.55 597.493 1059.43 587.049 1064.81 577.611 C 1071.57 565.744 1080.32 555.293 1088.89 544.726 C 1088 554.129 1088.48 562.054 1090.44 571.304 C 1103.77 563.554 1115.39 553.014 1128.38 544.657 C 1160.15 524.218 1195.67 506.952 1231.27 494.324 z"
  />
  <path
    transform="translate(0,0)"
    fill="rgb(134,148,130)"
    d="M 836.304 1078.03 C 835.112 1075.87 834.142 1073.63 833.176 1071.37 C 825.079 1052.4 824.759 1032.64 832.539 1013.51 C 844.109 985.067 868.516 965.571 896.368 954.172 C 953.706 930.706 1043.98 929.609 1101.01 953.858 C 1134.88 968.261 1159.91 991.098 1173.87 1025.55 C 1193.18 1040.83 1213.77 1074.23 1224.66 1095.99 C 1244.57 1080.62 1262.83 1062.23 1279.73 1043.62 C 1283.94 1040 1286.43 1036.07 1289.28 1031.4 C 1325.64 1046.27 1363.05 1051.66 1400.79 1061.48 C 1463.41 1077.77 1527.33 1116.4 1566.13 1168.64 C 1557.15 1163.7 1538.01 1151.41 1527.85 1154.66 C 1526.4 1155.12 1526.24 1155.84 1525.42 1157 C 1530.91 1169.29 1538.59 1180.48 1544.23 1192.73 C 1553.83 1213.6 1559.82 1237.79 1562.03 1260.56 C 1563.11 1271.77 1563.14 1283.05 1564.31 1294.24 C 1558.94 1284.4 1552.87 1271.86 1542.59 1266.27 L 1540.3 1266.37 C 1537.91 1270.25 1538.64 1274.18 1539.62 1278.51 C 1540.48 1282.28 1541.56 1286 1542.61 1289.71 C 1528.82 1315.1 1514.73 1339.29 1494.15 1360 C 1446.77 1407.68 1345.45 1445.09 1280.84 1464.21 C 1079.46 1523.83 792.493 1523.8 604.894 1421.5 C 561.762 1397.98 491.035 1348.41 476.973 1300.39 C 475.001 1293.65 473.581 1286.52 470.858 1280.04 L 472.371 1279.09 C 473.247 1273.46 474.293 1267.85 475.509 1262.28 C 484.907 1270.43 494.2 1278.95 504.111 1286.47 C 539.753 1313.52 586.948 1325.21 629.996 1334.2 C 670.888 1342.75 712.039 1351.38 754.005 1351.88 C 771.86 1352.09 789.729 1350.5 807.507 1349.05 C 841.743 1346.28 873.184 1340.69 905.561 1328.91 C 919.032 1324 932.411 1318.13 944.928 1311.14 C 956.069 1304.92 966.952 1297.96 977.696 1291.08 C 984.023 1287.03 990.318 1281.96 997.295 1279.08 C 1000.57 1277.73 1004.08 1277.29 1007.57 1276.84 C 1009.25 1276.62 1008.71 1277.05 1009.44 1276.15 C 998.131 1276.24 984.569 1282.04 976.235 1289.85 C 976.016 1290.05 975.805 1290.27 975.591 1290.48 C 973.612 1283.89 972.899 1279.1 968.506 1273.47 C 984.814 1268.48 997.546 1272.38 1012.52 1269.11 C 932.62 1268.28 872.008 1266.15 795.843 1238.92 C 755.436 1222.52 711.309 1200.23 678.668 1170.81 C 656.502 1180.6 636.615 1185.34 612.344 1185.84 C 613.245 1180.07 614.389 1174.31 615.429 1168.56 C 655.122 1163.83 677.972 1149.07 708.612 1124.96 C 712.874 1129.44 716.803 1133.9 720.483 1138.87 C 715.327 1144.13 709.328 1148.8 703.725 1153.6 C 758.871 1197.7 828.657 1211.75 896.907 1220.73 C 889.049 1210.98 881.634 1200.82 875.582 1189.83 C 864.155 1169.09 835.235 1099.79 836.304 1078.03 z"
  />
  <path
    transform="translate(0,0)"
    fill="rgb(2,5,8)"
    d="M 836.304 1078.03 C 835.112 1075.87 834.142 1073.63 833.176 1071.37 C 825.079 1052.4 824.759 1032.64 832.539 1013.51 C 844.109 985.067 868.516 965.571 896.368 954.172 C 953.706 930.706 1043.98 929.609 1101.01 953.858 C 1134.88 968.261 1159.91 991.098 1173.87 1025.55 C 1174.54 1051.77 1171.35 1068.84 1155.75 1090.76 C 1150.1 1118.79 1111.02 1153.88 1087.49 1169.36 C 1071.4 1179.94 1035.07 1197.71 1015.55 1194.22 C 1014.65 1199.82 1014.55 1204.32 1009.74 1208.05 C 1008.13 1209.3 1006.74 1209.58 1004.72 1209.8 C 1001.72 1208.94 999.489 1208.26 997.835 1205.34 C 997.306 1204.41 996.869 1203.42 996.411 1202.46 C 975.125 1197.85 952.184 1188.42 933.721 1177.05 C 915.349 1165.75 866.927 1128.98 862.073 1108.32 C 852.721 1099.19 844.428 1088.26 836.304 1078.03 z"
  />
  <path
    transform="translate(0,0)"
    fill="url(#Gradient4)"
    d="M 1020.45 1161.14 C 1032.44 1157.09 1044.89 1154.23 1056.95 1150.31 C 1081.23 1142.41 1106.77 1130.29 1127.52 1115.16 C 1137.31 1108.02 1145.16 1098.66 1154.83 1091.43 C 1155.14 1091.21 1155.44 1090.99 1155.75 1090.76 C 1150.1 1118.79 1111.02 1153.88 1087.49 1169.36 C 1071.4 1179.94 1035.07 1197.71 1015.55 1194.22 C 1016.87 1183.26 1017.62 1171.83 1020.45 1161.14 z"
  />
  <path
    transform="translate(0,0)"
    fill="url(#Gradient3)"
    d="M 862.073 1108.32 C 873.654 1112.35 884.83 1122.89 895.717 1128.9 C 929.982 1147.82 958.504 1154.14 996.151 1161.62 C 996.114 1175.08 995.319 1189.07 996.411 1202.46 C 975.125 1197.85 952.184 1188.42 933.721 1177.05 C 915.349 1165.75 866.927 1128.98 862.073 1108.32 z"
  />
  <path
    transform="translate(0,0)"
    fill="url(#Gradient2)"
    d="M 984.622 951.45 C 988.993 951.338 993.364 951.274 997.735 951.258 C 1040.35 951.179 1087.67 958.27 1122.87 983.892 C 1129.95 989.043 1136.07 995.372 1142.24 1001.54 C 1111.76 1021.58 1048.59 1030.12 1011.75 1031.24 C 973.043 1034.24 927.024 1033.42 890.381 1020.1 C 877.969 1015.59 866.696 1008.95 854.788 1003.35 C 856.716 1000.59 858.86 998.005 861.12 995.507 C 890.605 962.93 942.936 953.59 984.622 951.45 z"
  />
  <path
    transform="translate(0,0)"
    fill="rgb(254,254,254)"
    d="M 925.357 971.257 C 936.442 970.346 950.132 970.293 959.938 976.183 C 963.029 978.04 966.039 980.917 966.471 984.696 C 966.735 987.008 965.883 989.23 964.558 991.085 C 958.528 999.524 945.352 1001.77 935.836 1003.7 C 924.534 1005.46 910.976 1005.71 900.423 1000.72 C 896.814 999.01 892.815 996.083 891.89 991.943 C 891.313 989.359 892.184 986.664 893.71 984.575 C 899.971 976.003 915.462 973.037 925.357 971.257 z"
  />
  <path
    transform="translate(0,0)"
    fill="rgb(2,5,8)"
    d="M 1302.78 1115.22 C 1319.14 1125.33 1335.39 1136.1 1353.75 1142.26 C 1365.15 1146.07 1377.14 1148.24 1388.45 1152.23 C 1388.94 1157.79 1389.26 1163.43 1390.01 1168.96 C 1373.81 1167.63 1357.72 1165.09 1341.9 1161.36 C 1324.11 1177.4 1304.96 1191.85 1284.65 1204.54 C 1236.26 1234.13 1169.51 1258.1 1113 1263.23 C 1090.6 1265.26 1068.04 1266.31 1045.58 1267.37 C 1034.91 1267.88 1023 1267.36 1012.52 1269.11 C 932.62 1268.28 872.008 1266.15 795.843 1238.92 C 755.436 1222.52 711.309 1200.23 678.668 1170.81 C 656.502 1180.6 636.615 1185.34 612.344 1185.84 C 613.245 1180.07 614.389 1174.31 615.429 1168.56 C 655.122 1163.83 677.972 1149.07 708.612 1124.96 C 712.874 1129.44 716.803 1133.9 720.483 1138.87 C 715.327 1144.13 709.328 1148.8 703.725 1153.6 L 695.63 1160.37 C 797.251 1235.52 873.876 1249.29 997.674 1249.66 C 1042.22 1249.8 1088.11 1248.58 1132.21 1242.01 C 1177.22 1235.32 1238.94 1210.89 1277.72 1186.06 C 1294.21 1175.49 1308.93 1162.92 1324.44 1151.04 C 1313.22 1145.31 1302.27 1137.2 1292.46 1129.27 C 1295.83 1124.57 1299.07 1119.66 1302.78 1115.22 z"
  />
  <path
    transform="translate(0,0)"
    fill="rgb(193,191,163)"
    d="M 813.99 900.322 C 820.032 917.721 807.582 941.851 800.022 957.454 C 771.538 1016.24 719.166 1053.75 658.572 1074.77 C 630.647 1084.45 547.816 1107.93 529.281 1125.5 C 518.733 1135.5 515.369 1149.08 506.677 1159.82 C 504.436 1164.41 502.419 1168.92 500.934 1173.82 C 499.826 1177.48 499.017 1184.59 497.223 1187.63 C 497.164 1192.27 497.004 1196.92 497.124 1201.54 C 522.931 1235.69 566.357 1246.22 605.52 1256.41 C 612.805 1255.69 635.263 1261.86 645.227 1262.75 C 686.565 1266.46 737.518 1268.71 778.514 1263.96 C 752.338 1250.4 724.166 1227.89 705.785 1204.69 C 722.999 1215.43 757.351 1235.42 775.937 1241.99 C 777.747 1242.63 778.875 1243.35 780.618 1242.5 C 778.325 1241.3 776.91 1241.1 775.727 1238.7 L 777.944 1233.92 C 783.803 1235.74 789.517 1238.39 795.336 1240.43 L 795.843 1238.92 C 872.008 1266.15 932.62 1268.28 1012.52 1269.11 C 997.546 1272.38 984.814 1268.48 968.506 1273.47 C 972.899 1279.1 973.612 1283.89 975.591 1290.48 C 975.805 1290.27 976.016 1290.05 976.235 1289.85 C 984.569 1282.04 998.131 1276.24 1009.44 1276.15 C 1008.71 1277.05 1009.25 1276.62 1007.57 1276.84 C 1004.08 1277.29 1000.57 1277.73 997.295 1279.08 C 990.318 1281.96 984.023 1287.03 977.696 1291.08 C 966.952 1297.96 956.069 1304.92 944.928 1311.14 C 932.411 1318.13 919.032 1324 905.561 1328.91 C 873.184 1340.69 841.743 1346.28 807.507 1349.05 C 789.729 1350.5 771.86 1352.09 754.005 1351.88 C 712.039 1351.38 670.888 1342.75 629.996 1334.2 C 586.948 1325.21 539.753 1313.52 504.111 1286.47 C 494.2 1278.95 484.907 1270.43 475.509 1262.28 C 474.293 1267.85 473.247 1273.46 472.371 1279.09 L 470.858 1280.04 C 455.358 1288.34 444.777 1323.61 438.738 1339.47 C 433.591 1294.35 435.959 1238.34 453.595 1196.54 C 458.7 1184.44 470.174 1174.74 474.001 1162.54 C 473.021 1160.62 472.516 1159.71 470.245 1159.01 C 461.729 1156.41 446.916 1165.46 439.837 1169.41 C 485.005 1115.47 548.898 1079.56 616.382 1062.23 C 646.991 1054.38 680.031 1048.16 708.383 1033.86 C 763.204 1006.21 795.084 957.146 813.99 900.322 z"
  />
  <path
    transform="translate(0,0)"
    fill="rgb(149,144,120)"
    d="M 493.262 1186.86 L 493.447 1187.91 C 493.993 1191.18 493.495 1200.24 495.406 1202.34 C 496.69 1197.51 495.425 1191.7 496.342 1186.52 L 497.223 1187.63 C 497.164 1192.27 497.004 1196.92 497.124 1201.54 C 522.931 1235.69 566.357 1246.22 605.52 1256.41 C 596.439 1258.67 582.06 1251.06 572.7 1249.08 C 570.736 1248.67 569.049 1247.82 567.337 1248.94 C 572.14 1252.22 577.138 1253.25 582.644 1254.93 L 583.059 1255.92 C 582.06 1255.83 581.665 1255.83 580.581 1255.56 C 549.916 1248.03 508.949 1229.29 492.394 1201.23 L 493.262 1186.86 z"
  />
  <path
    transform="translate(0,0)"
    fill="rgb(134,148,130)"
    d="M 493.262 1186.86 L 493.745 1183.02 C 494.578 1176.18 496.245 1168.27 500.159 1162.44 C 501.669 1160.19 502.68 1158.71 505.318 1158.07 L 506.677 1159.82 C 504.436 1164.41 502.419 1168.92 500.934 1173.82 C 499.826 1177.48 499.017 1184.59 497.223 1187.63 L 496.342 1186.52 C 495.425 1191.7 496.69 1197.51 495.406 1202.34 C 493.495 1200.24 493.993 1191.18 493.447 1187.91 L 493.262 1186.86 z"
  />
  <path
    transform="translate(0,0)"
    fill="rgb(193,191,163)"
    d="M 1277.17 541.307 C 1285.98 536.774 1307.23 537.663 1317.69 537.162 C 1377.93 534.277 1435.78 532.713 1493.94 551.246 C 1512.56 557.179 1532.55 564.929 1549.5 574.834 C 1530.51 574.72 1462.31 573.826 1447.99 585.484 L 1447.59 587.566 C 1451.17 592.265 1506.48 612.701 1516.2 617.46 C 1513.62 620.489 1512.1 620.723 1508.06 620.992 C 1501.99 621.397 1495.49 619.806 1489.38 619.503 C 1494.54 628.12 1501.46 635.878 1506.24 644.554 C 1511.52 654.131 1515.29 665.324 1519.02 675.586 C 1533.78 716.126 1538.38 747.487 1527.53 790.137 C 1525.48 798.197 1512.2 841.891 1505.81 846.111 C 1476.74 803.565 1440.29 758.033 1392.51 736.061 C 1352.37 717.602 1307.16 712.903 1265.27 728.476 C 1227.76 742.425 1204.76 771.205 1188.52 806.7 C 1185.29 791.822 1192.08 768.155 1198.37 754.332 C 1199.64 751.084 1201 747.87 1202.44 744.692 C 1218.92 709.288 1247.86 683.518 1284.48 670.527 C 1337.28 651.799 1405.79 660.487 1452.45 691.306 C 1457.76 694.776 1462.9 698.503 1467.85 702.473 C 1472.97 706.604 1482.66 717.518 1488.13 719.668 C 1488.45 719.795 1488.8 719.849 1489.14 719.939 C 1487.12 711.291 1488.61 700.183 1488.61 691.207 C 1488.62 664.294 1480.5 639.765 1466.85 616.598 C 1463.47 610.859 1459.36 605.834 1454.03 601.785 C 1436.21 588.27 1402.84 578.472 1380.93 572.826 C 1400.72 564.133 1422.82 559.927 1443.72 554.627 C 1394.93 541.258 1356.83 546.564 1308.05 552.261 C 1292.79 554.044 1277.17 556.38 1261.78 556.184 C 1266.56 550.735 1272.6 546.676 1277.17 541.307 z"
  />
  <path
    transform="translate(0,0)"
    fill="rgb(149,144,120)"
    d="M 1198.37 754.332 C 1199.64 751.084 1201 747.87 1202.44 744.692 C 1218.92 709.288 1247.86 683.518 1284.48 670.527 C 1337.28 651.799 1405.79 660.487 1452.45 691.306 C 1457.76 694.776 1462.9 698.503 1467.85 702.473 C 1472.97 706.604 1482.66 717.518 1488.13 719.668 C 1488.45 719.795 1488.8 719.849 1489.14 719.939 C 1491.08 720.96 1491.72 721.527 1492.72 723.479 L 1492.09 725.317 C 1485.32 724.562 1458.82 700.527 1450.16 695.244 C 1441.5 689.956 1431.13 686.305 1421.72 682.522 C 1407.48 676.799 1393.12 671.581 1378.01 668.658 C 1333.74 660.094 1280.69 667.973 1244.82 696.69 C 1233.21 705.986 1221.76 718.235 1213.84 730.846 C 1210.16 736.703 1204.64 752.897 1199.93 756.067 C 1198.53 754.819 1198.96 755.463 1198.37 754.332 z"
  />
  <path
    transform="translate(0,0)"
    fill="rgb(193,191,163)"
    d="M 303.623 970.201 C 322.174 936.321 335.88 892.864 349.94 856.394 C 357.848 835.885 366.793 812.951 379.178 794.723 C 381.894 794.869 384.033 795.077 386.656 795.9 C 387.571 797.1 388.286 797.389 388.076 798.995 C 386.474 811.234 365.319 849.96 359.103 864.338 C 349.858 885.723 341.234 908.508 335.259 930.993 C 343.915 923.321 365.816 900.379 375.697 897.789 C 378.546 898.312 379.446 898.357 381.429 900.674 C 388.509 908.949 385.17 934.665 383.008 944.786 C 381.663 951.079 373.432 967.312 374.592 971.97 C 380.359 972.736 385.44 968.913 389.82 965.595 C 396.503 960.533 410.853 945.705 417.458 942.953 C 419.056 942.287 420.896 942.465 422.588 942.547 C 418.111 950.108 411.534 957.486 405.884 964.242 C 377.678 998.497 343.347 1027.21 304.642 1048.9 C 314.103 1032.47 321.204 1014.52 329.009 997.247 C 337.146 979.513 345.654 961.952 354.526 944.575 C 337.131 951.894 320.639 961.926 303.623 970.201 z"
  />
  <path
    transform="translate(0,0)"
    fill="rgb(193,191,163)"
    d="M 450.622 578.439 C 519.789 536.752 597.479 536.734 675.317 537.524 L 673.585 538.696 C 674.316 545.504 687.207 552.938 684.828 559.144 C 676.807 561.617 658.687 559.01 649.049 559.021 C 629.666 559.042 530.76 560.894 524.435 577.887 C 524.224 578.453 524.156 579.064 524.017 579.652 C 499.28 577.951 475.414 577.125 450.622 578.439 z"
  />
  <path
    transform="translate(0,0)"
    fill="rgb(193,191,163)"
    d="M 550.917 590.515 C 551.562 593.842 552.783 596.773 554.068 599.898 C 541.39 606.486 528.119 611.704 515.211 617.798 C 485.661 631.75 456.569 649.023 432.73 671.523 C 438.792 669.15 449.584 664.064 455.96 666.833 C 457.309 667.419 457.223 668.325 457.683 669.596 C 453.462 686.036 410.359 729.369 407.717 744.835 C 407.399 744.519 407.129 744.147 406.763 743.888 C 403.005 741.235 387.402 747.724 382.572 749.1 C 398.166 728.912 415.456 710.244 432.438 691.243 C 434.621 688.8 437.354 686.412 437.164 683.018 C 429.303 680.887 394.091 689.639 383.844 691.905 C 413.156 654.83 463.297 622.937 507.039 606.428 C 520.643 601.293 539.058 598.837 550.917 590.515 z"
  />
  <path
    transform="translate(0,0)"
    fill="rgb(193,191,163)"
    d="M 1183.92 892.769 C 1201.31 950.694 1231.65 1000.45 1286.24 1029.88 C 1287.24 1030.42 1288.26 1030.9 1289.28 1031.4 C 1286.43 1036.07 1283.94 1040 1279.73 1043.62 C 1263.36 1034.23 1249.09 1023.14 1236.06 1009.46 C 1212.07 984.272 1188.2 944.208 1183.81 909.318 C 1183.12 903.854 1183.81 898.268 1183.92 892.769 z"
  />
  <path
    transform="translate(0,0)"
    fill="rgb(193,191,163)"
    d="M 1231.27 494.324 C 1275.56 479.206 1320.94 480.147 1366.93 483.569 C 1352.11 487.75 1337.47 492.084 1323.05 497.541 C 1322.36 496.599 1321.63 495.621 1320.54 495.087 C 1317.61 493.642 1312.39 493.82 1309.13 493.629 C 1277.25 491.754 1251.17 505.822 1221.03 512.051 L 1219.28 512.402 C 1222.3 508.124 1232.86 500.224 1233.39 495.763 L 1231.27 494.324 z"
  />
  <path
    transform="translate(0,0)"
    fill="rgb(193,191,163)"
    d="M 585.418 485.884 C 591.77 484.363 598.552 483.069 605.089 483.057 C 606.712 485.714 612.784 486.818 615.875 487.59 C 638.921 493.352 661.81 493.39 675.488 516.647 C 677.077 519.348 677.646 521.798 677.985 524.875 C 649.174 506.398 618.874 493.425 585.418 485.884 z"
  />
  <path
    transform="translate(0,0)"
    fill="rgb(193,191,163)"
    d="M 915.634 575.272 C 915.818 575.64 915.984 576.017 916.184 576.377 C 917.252 578.302 916.816 577.551 918.343 579.178 C 924.182 585.397 929.837 605.515 933.232 613.989 C 926.067 607.299 920.079 596.149 912.444 590.782 C 914.171 585.696 914.962 580.568 915.634 575.272 z"
  />
  <path
    transform="translate(0,0)"
    fill="rgb(193,191,163)"
    d="M 986.735 866.434 C 986.856 866.418 986.976 866.396 987.097 866.388 C 1026.32 863.897 1065.15 870.379 1096.28 896.089 C 1105.88 904.014 1118.59 916.177 1119.69 929.198 C 1119.87 931.28 1120.2 931.225 1118.81 932.876 C 1109.08 930.896 1099.84 923.384 1090.61 919.526 C 1068.22 910.159 1043.08 907.228 1019.04 905.586 C 989.629 902.986 940.004 906.553 912.636 917.336 C 902.097 921.488 892.813 927.586 883.314 933.652 C 886.859 923.887 890.599 915.778 897.308 907.742 C 919.686 880.937 952.755 869.536 986.735 866.434 z"
  />
  <path
    transform="translate(0,0)"
    fill="rgb(2,5,8)"
    d="M 626.228 793.26 C 676.816 780.649 729.591 803.43 755.11 848.896 C 780.628 894.361 772.586 951.277 735.47 987.893 C 698.354 1024.51 641.333 1031.78 596.219 1005.64 C 551.105 979.508 529.042 926.429 542.34 876.016 C 541.614 868.35 547.142 853.416 551.401 846.803 C 553.852 842.997 557.357 836.861 556.549 832.319 C 554.168 835.317 551.897 838.663 548.79 840.941 C 549.631 837.144 576.257 799.994 580.563 793.474 L 581.335 793.743 C 579.998 803.464 568.105 810.539 565.963 821.366 C 566.298 821.698 566.574 822.101 566.967 822.362 C 567.003 822.387 569.267 823.333 569.426 823.307 C 571.339 822.998 591.232 804.444 599.904 801.685 C 608.451 798.966 615.762 794.52 624.638 792.291 L 626.228 793.26 z"
  />
  <path
    transform="translate(0,0)"
    fill="rgb(24,42,42)"
    d="M 542.34 876.016 C 541.614 868.35 547.142 853.416 551.401 846.803 C 553.852 842.997 557.357 836.861 556.549 832.319 C 554.168 835.317 551.897 838.663 548.79 840.941 C 549.631 837.144 576.257 799.994 580.563 793.474 L 581.335 793.743 C 579.998 803.464 568.105 810.539 565.963 821.366 C 566.298 821.698 566.574 822.101 566.967 822.362 C 567.003 822.387 569.267 823.333 569.426 823.307 C 571.339 822.998 591.232 804.444 599.904 801.685 C 608.451 798.966 615.762 794.52 624.638 792.291 L 626.228 793.26 C 585.26 803.473 553.108 835.191 542.34 876.016 z"
  />
  <path
    transform="translate(0,0)"
    fill="url(#Gradient1)"
    d="M 572.811 943.928 C 582.32 935.788 596.994 926.772 609.949 927.802 C 626.04 929.081 633.209 952.781 655.468 957.62 C 666.028 959.915 674.64 954.839 684.509 955.518 C 688.007 951.477 691.87 948.28 696.467 945.576 C 697.891 944.765 698.9 944.655 699.501 943.085 C 700.414 940.701 701.325 938.033 703.761 936.77 C 705.979 935.619 708.193 935.883 710.39 936.878 C 715.935 939.389 724.621 947.201 726.401 953.163 C 728.01 958.555 725.985 964.189 723.278 968.852 C 713.678 985.387 695.315 995.505 677.244 999.996 C 653.788 1005.69 629.033 1001.95 608.311 989.566 C 590.278 978.701 580.021 963.405 572.811 943.928 z"
  />
  <path
    transform="translate(0,0)"
    fill="rgb(254,254,254)"
    d="M 696.467 945.576 C 701.594 946.862 708.223 949.424 710.988 954.338 C 712.63 957.255 712.98 960.052 712.014 963.228 C 710.786 967.185 708.034 970.491 704.366 972.417 C 700.697 974.363 695.78 975.136 691.874 973.407 C 688.275 971.813 686.404 968.342 685.349 964.747 C 684.431 961.617 684.271 958.744 684.509 955.518 C 688.007 951.477 691.87 948.28 696.467 945.576 z"
  />
  <path
    transform="translate(0,0)"
    fill="rgb(254,254,254)"
    d="M 602.386 829.489 C 622.694 826.219 641.822 839.991 645.161 860.288 C 648.5 880.585 634.792 899.759 614.506 903.166 C 594.124 906.59 574.838 892.802 571.484 872.408 C 568.129 852.015 581.981 832.776 602.386 829.489 z"
  />
  <path
    transform="translate(0,0)"
    fill="rgb(2,5,8)"
    d="M 1330.63 791.172 C 1393.85 782.998 1451.68 827.752 1459.62 891.001 C 1467.56 954.249 1422.6 1011.91 1359.32 1019.62 C 1296.37 1027.29 1239.07 982.608 1231.17 919.687 C 1223.27 856.766 1267.74 799.304 1330.63 791.172 z"
  />
  <path
    transform="translate(0,0)"
    fill="rgb(98,78,75)"
    d="M 1370.76 943.416 C 1374.08 935.941 1376.29 930.598 1384.58 927.633 C 1394.09 924.227 1405.6 927.804 1414.25 932.186 C 1419.37 934.779 1423.77 937.944 1428.14 941.657 C 1420.69 963.758 1406.51 982.024 1385.35 992.628 C 1363.8 1003.42 1337.57 1004.68 1314.88 996.84 C 1300.42 991.845 1286.36 982.148 1279.52 968.132 C 1279.34 967.772 1279.18 967.408 1279 967.046 C 1278.6 963.625 1278.15 960.002 1278.71 956.578 C 1280.36 946.452 1288.16 941.715 1295.81 936.098 C 1298.9 938.896 1301.51 941.901 1304.18 945.081 C 1316.39 953.809 1327.67 960.279 1343.33 957.582 C 1348.04 956.773 1352.65 955.209 1357.42 954.895 C 1361.05 949.942 1365.48 946.497 1370.76 943.416 z"
  />
  <path
    transform="translate(0,0)"
    fill="rgb(254,254,254)"
    d="M 1370.76 943.416 C 1375.36 944.31 1380.04 946.767 1382.7 950.79 C 1384.82 953.998 1385.2 957.739 1384.2 961.406 C 1383.03 965.66 1380.01 969.466 1376.04 971.425 C 1373.47 972.693 1370.56 973.211 1367.75 972.436 C 1363.64 971.302 1361.02 967.513 1359.41 963.811 C 1358.21 961.05 1357.78 957.864 1357.42 954.895 C 1361.05 949.942 1365.48 946.497 1370.76 943.416 z"
  />
  <path
    transform="translate(0,0)"
    fill="rgb(24,42,42)"
    d="M 1279 967.046 C 1278.6 963.625 1278.15 960.002 1278.71 956.578 C 1280.36 946.452 1288.16 941.715 1295.81 936.098 C 1298.9 938.896 1301.51 941.901 1304.18 945.081 C 1294.57 949.931 1286.91 959.851 1279 967.046 z"
  />
  <path
    transform="translate(0,0)"
    fill="rgb(254,254,254)"
    d="M 1286.1 827.703 C 1306.32 825.499 1324.58 839.902 1327.14 860.078 C 1329.7 880.254 1315.62 898.763 1295.5 901.683 C 1282.15 903.619 1268.81 898.203 1260.59 887.518 C 1252.36 876.834 1250.55 862.544 1255.84 850.144 C 1261.13 837.744 1272.7 829.163 1286.1 827.703 z"
  />
  <path
    transform="translate(0,0)"
    fill="rgb(134,148,130)"
    d="M 1516.2 617.46 C 1559.39 635.946 1583.96 661.287 1616.35 693.195 C 1597.45 688.65 1572.67 681.38 1553.6 680.46 C 1572.67 701.787 1588.2 725.315 1606.4 747.158 C 1601.14 745.247 1593.54 741.452 1588.05 743.625 L 1587.26 745.035 C 1592.7 761.688 1606.09 778.57 1615.19 793.696 C 1626.93 813.229 1638.17 833.416 1648.02 853.968 L 1632.94 853.471 C 1642.18 869.096 1651.81 884.643 1659.95 900.878 C 1671.53 923.969 1681.3 948.045 1693.5 970.82 C 1675.41 963.705 1659.48 952.162 1641.52 944.877 C 1659.33 978.823 1674.59 1015.11 1694.48 1047.82 C 1626 1005.59 1573.69 946.13 1528.86 880.143 C 1521.61 869.464 1511.09 857.752 1505.81 846.111 C 1512.2 841.891 1525.48 798.197 1527.53 790.137 C 1538.38 747.487 1533.78 716.126 1519.02 675.586 C 1515.29 665.324 1511.52 654.131 1506.24 644.554 C 1501.46 635.878 1494.54 628.12 1489.38 619.503 C 1495.49 619.806 1501.99 621.397 1508.06 620.992 C 1512.1 620.723 1513.62 620.489 1516.2 617.46 z"
  />
  <path
    transform="translate(0,0)"
    fill="rgb(24,42,42)"
    d="M 953.949 1866.5 C 954.208 1866.91 954.051 1867.46 954.062 1867.95 C 948.872 1871.46 944.507 1877.45 939.229 1880.38 C 936.845 1881.7 934.566 1880.41 932.221 1879.69 C 930.627 1878.26 929.983 1877.57 929.459 1875.48 C 933.149 1870 947.545 1867.85 953.949 1866.5 z"
  />
</svg>
